<?xml version="1.0" encoding="UTF-8" standalone="no"?>
<!DOCTYPE svg PUBLIC "-//W3C//DTD SVG 1.1//EN" "http://www.w3.org/Graphics/SVG/1.1/DTD/svg11.dtd">
<svg version="1.1" xmlns="http://www.w3.org/2000/svg" xmlns:xlink="http://www.w3.org/1999/xlink" preserveAspectRatio="xMidYMid meet" viewBox="0 0 1920 1080" width="1920" height="1080"><defs><path d="M0 0L1920 0L1920 1080L0 1080L0 0Z" id="a28nJkEIeT"></path><linearGradient id="gradientc6krUKS5d1" gradientUnits="userSpaceOnUse" x1="960" y1="0" x2="750" y2="1080"><stop style="stop-color: #17072f;stop-opacity: 1" offset="0%"></stop><stop style="stop-color: #221136;stop-opacity: 1" offset="14.510353967602791%"></stop><stop style="stop-color: #a43f19;stop-opacity: 1" offset="78.59464074582543%"></stop><stop style="stop-color: #dd4d20;stop-opacity: 1" offset="100%"></stop></linearGradient><path d="M0 1080L1920 1080L1920 759.38L1770 759.38L1770 675L1725 675L1725 540L1755 540L1755 455.63L1725 455.63L1725 421.88L1605 421.88L1605 759.38L1500 759.38L1500 641.25L1425 641.25L1425 708.75L1200 708.75L1200 759.38L1050 759.38L1050 506.25L1020 506.25L1020 540L810 540L810 759.38L720 759.38L720 472.5L675 472.5L675 421.88L600 421.88L525 421.88L525 759.38L300 759.38L300 337.5L75 337.5L75 759.38L0 759.38L0 1080Z" id="c6CmTbJ9NF"></path><linearGradient id="gradientekhv2MDZi" gradientUnits="userSpaceOnUse" x1="1043.94" y1="229.92" x2="1023.64" y2="1007.44"><stop style="stop-color: #4e1a06;stop-opacity: 1" offset="0%"></stop><stop style="stop-color: #120424;stop-opacity: 1" offset="100%"></stop></linearGradient><path d="M0 1080L1920 1080L1920 592.88L1830 624.38L1830 759.38L855 759.38L855 675L870 675L870 624.38L570 624.38L570 675L600 675L600 759.38L405 759.38L405 641.25L345 641.25L345 506.25L150 506.25L150 759.38L-2.62 759.38L0 1080Z" id="a6O5crFTnz"></path><linearGradient id="gradientc3RJo1L3ik" gradientUnits="userSpaceOnUse" x1="1080" y1="380.55" x2="1080" y2="854.24"><stop style="stop-color: #663415;stop-opacity: 1" offset="0%"></stop><stop style="stop-color: #2c0d03;stop-opacity: 1" offset="100%"></stop></linearGradient><path d="M75 333.28L78.75 333.28L78.75 337.5L75 337.5L75 333.28Z" id="f1U38etjk"></path><path d="M296.25 333.28L300 333.28L300 337.5L296.25 337.5L296.25 333.28Z" id="d77TMk3Pz"></path><path d="M150 502.03L153.75 502.03L153.75 506.25L150 506.25L150 502.03Z" id="aQNxydinK"></path><path d="M341.25 502.03L345 502.03L345 506.25L341.25 506.25L341.25 502.03Z" id="e3b2ygizLy"></path><path d="M525 417.66L528.75 417.66L528.75 421.88L525 421.88L525 417.66Z" id="b10z44frOz"></path><path d="M671.25 417.66L675 417.66L675 421.88L671.25 421.88L671.25 417.66Z" id="a88hMDd2VZ"></path><path d="M716.25 468.28L720 468.28L720 472.5L716.25 472.5L716.25 468.28Z" id="aVsivyDUh"></path><path d="M566.25 468.28L570 468.28L570 472.5L566.25 472.5L566.25 468.28Z" id="c37K3530XL"></path><path d="M810 535.78L813.75 535.78L813.75 540L810 540L810 535.78Z" id="a1noyGjyWH"></path><path d="M1046.25 502.03L1050 502.03L1050 506.25L1046.25 506.25L1046.25 502.03Z" id="a13XxIdYC3"></path><path d="M1496.25 637.03L1500 637.03L1500 641.25L1496.25 641.25L1496.25 637.03Z" id="bbbs8x0z6"></path><path d="M1425 637.03L1428.75 637.03L1428.75 641.25L1425 641.25L1425 637.03Z" id="aaLzzwVX"></path><path d="M1605 417.66L1608.75 417.66L1608.75 421.88L1605 421.88L1605 417.66Z" id="a1xcZ6QkNC"></path><path d="M1721.25 417.66L1725 417.66L1725 421.88L1721.25 421.88L1721.25 417.66Z" id="akMEZnZCB"></path><path d="M0 759.38L1920 759.38L1920 1080L0 1080L0 759.38Z" id="cyN0i87CB"></path><linearGradient id="gradientciZEXFFJU" gradientUnits="userSpaceOnUse" x1="960" y1="759.38" x2="960" y2="1080"><stop style="stop-color: #2a0e02;stop-opacity: 1" offset="0%"></stop><stop style="stop-color: #180703;stop-opacity: 1" offset="100%"></stop></linearGradient></defs><g><g><g><use xlink:href="#a28nJkEIeT" opacity="1" fill="url(#gradientc6krUKS5d1)"></use></g><g><use xlink:href="#c6CmTbJ9NF" opacity="1" fill="url(#gradientekhv2MDZi)"></use></g><g><use xlink:href="#a6O5crFTnz" opacity="1" fill="url(#gradientc3RJo1L3ik)"></use></g><g><use xlink:href="#f1U38etjk" opacity="1" fill="#d11717" fill-opacity="1"></use></g><g><use xlink:href="#d77TMk3Pz" opacity="1" fill="#d11717" fill-opacity="1"></use></g><g><use xlink:href="#aQNxydinK" opacity="1" fill="#d11717" fill-opacity="1"></use></g><g><use xlink:href="#e3b2ygizLy" opacity="1" fill="#d11717" fill-opacity="1"></use></g><g><use xlink:href="#b10z44frOz" opacity="1" fill="#d11717" fill-opacity="1"></use></g><g><use xlink:href="#a88hMDd2VZ" opacity="1" fill="#d11717" fill-opacity="1"></use></g><g><use xlink:href="#aVsivyDUh" opacity="1" fill="#d11717" fill-opacity="1"></use></g><g><use xlink:href="#c37K3530XL" opacity="1" fill="#d11717" fill-opacity="1"></use></g><g><use xlink:href="#a1noyGjyWH" opacity="1" fill="#d11717" fill-opacity="1"></use></g><g><use xlink:href="#a13XxIdYC3" opacity="1" fill="#d11717" fill-opacity="1"></use></g><g><use xlink:href="#bbbs8x0z6" opacity="1" fill="#d11717" fill-opacity="1"></use></g><g><use xlink:href="#aaLzzwVX" opacity="1" fill="#d11717" fill-opacity="1"></use></g><g><use xlink:href="#a1xcZ6QkNC" opacity="1" fill="#d11717" fill-opacity="1"></use></g><g><use xlink:href="#akMEZnZCB" opacity="1" fill="#d11717" fill-opacity="1"></use></g><g><use xlink:href="#cyN0i87CB" opacity="1" fill="url(#gradientciZEXFFJU)"></use></g></g></g></svg>